<svg id="Calque_1" data-name="Calque 1" xmlns="http://www.w3.org/2000/svg" viewBox="0 0 200 200"><defs></defs><path class="cls-1" d="M70.34,200c-11.83,0-21-6-26.61-17.32A58.49,58.49,0,0,1,39,167.88c-16.08-.65-28.65-6.85-35.5-17.55C-.1,144.74-2.73,135,5.09,120.49a70.54,70.54,0,0,1,5.22-8.18C.88,97.93-2.3,81.82,1.79,66.91A49.26,49.26,0,0,1,12,47.92c3.87-12.15,10.86-22.47,19-28.62,19-14.41,40.39-16.53,62.3-6.69,1.79-1,3.58-2,5.34-2.87C126-3.71,151.92-3.21,169.72,11.1c13.05,10.51,19.17,26.77,15.59,41.43a64.65,64.65,0,0,1-4.85,13.12c1.37,1.34,2.69,2.77,4,4.21,14.57,16.25,19.18,34.75,12.67,50.76-5.33,13.1-17.73,22.37-33.08,25.06-3.27,9.2-10.81,20.74-27.88,30.35-8.54,4.81-16.92,6-24,3.61q-1.08,1.29-2.22,2.52C99.37,193.5,84.94,200,70.34,200ZM48.68,171.05a43.42,43.42,0,0,0,2.89,7.76c4.12,8.37,10.26,12.44,18.77,12.44a44.71,44.71,0,0,0,26.91-9.37c-12.77,4.82-23.81,5.58-32.87,2.25A30.85,30.85,0,0,1,48.68,171.05Zm7.55-4.47a22.38,22.38,0,0,0,11.16,9.34c9.35,3.44,21.47.59,33.22-4.95-3.59-5-5.84-11.84-6.06-20A103.54,103.54,0,0,1,56.23,166.58Zm61.41,5.33c4.22.55,9.09-.61,14.22-3.5,10.67-6,18.28-13.5,22.39-22a38.1,38.1,0,0,1-5-.44q-7.94,7.58-18.43,16.06A141.65,141.65,0,0,1,118,171.27Zm-14-27.7c-1.24,9.73.69,17.71,4.85,22.64,1-.58,2-1.18,3-1.79,5.48-10.18,8.15-22.54,7.67-36.05l-.77.37-.6.42A101.73,101.73,0,0,1,103.62,144.21ZM15.81,119.67c-1.13,1.67-2.13,3.33-3,5-3.2,6-6.14,14.43-1.95,21,5.05,7.89,14.55,12.61,26.93,13.45a129.32,129.32,0,0,1,.29-23.58,37.12,37.12,0,0,1-15.51-8.75A82.47,82.47,0,0,1,15.81,119.67Zm32.7,17.49A90.62,90.62,0,0,0,50,149.36a62,62,0,0,0,2.33,9,96.13,96.13,0,0,0,39.56-16.25c-12.59,3.72-25.05,4.22-34.57.34A35.79,35.79,0,0,1,48.51,137.16Zm79.43-6.1a84,84,0,0,1-3.28,24.73c.23-.17.45-.35.67-.53q8-6.44,14.37-12.32A27,27,0,0,1,127.94,131.06Zm5.66-10.23c.08.37.16.75.26,1.13,1.15,4.67,4.26,11.57,12.67,14.43A128.86,128.86,0,0,0,157,124.6a35.13,35.13,0,0,0-5.27-12.29c-.78-1.16-1.57-2.23-2.35-3.21A142.23,142.23,0,0,1,133.6,120.83Zm32.65,6a41.53,41.53,0,0,1,0,9.39c10.72-2.82,19-9.56,22.79-19,5.21-12.79,1.17-28-11.08-41.62-.68-.76-1.33-1.47-2-2.14-.48.74-1,1.49-1.5,2.24a56,56,0,0,1-5.74,11.66c4.68,5.43,6.82,11.51,6.36,18.1S171.75,119.07,166.25,126.88Zm-145-14.34a73,73,0,0,0,7.24,7.79,28.41,28.41,0,0,0,10.15,6.07,65.27,65.27,0,0,1-6-10.73,58.48,58.48,0,0,1-8-6.87C23.46,110.05,22.34,111.29,21.27,112.54Zm134.59-9.38q1.56,1.89,3.15,4.26a44.77,44.77,0,0,1,4.18,7.71A26.67,26.67,0,0,0,166.37,105a15,15,0,0,0-3-10.13A100.51,100.51,0,0,1,155.86,103.16ZM53.4,104.89a17.61,17.61,0,0,0,9.89,8.16c3.08,1.1,8.34,2.12,15.83.7-15.57-1.9-21.14-9.39-23-16C55.22,99.91,54.28,102.29,53.4,104.89ZM68,82c-2.56,3.76-4,7.44-3.88,10.5.41,8.77,8.45,13.12,23.86,12.95,6.83-.08,13.34-3,18.94-7.53-.72.26-1.46.51-2.22.76-4.74,1.51-20.81,6-28.92,0a11.18,11.18,0,0,1-4.56-9.42,16.85,16.85,0,0,1,2.61-8.46A35.81,35.81,0,0,0,68,82ZM9.08,75c-1.19,9.95,1.3,20.37,7.06,30.09.92-1,1.88-2.07,2.87-3.11a54.67,54.67,0,0,1-7.55-15.33A61.33,61.33,0,0,1,9.08,75Zm10.75-22.8a56.06,56.06,0,0,0,0,31.86,45.82,45.82,0,0,0,5.53,11.74l1.55-1.4C24.8,76.6,29.56,59.86,40.44,47.58A69.29,69.29,0,0,1,57.05,34c-.92.14-1.85.31-2.78.52C39.37,37.81,27.65,43.89,19.83,52.24ZM84.59,81.1c-2.77,3-4.6,5.87-4.6,8.21a2.51,2.51,0,0,0,1,2.36c3.35,2.45,13.37,1.15,21.1-1.32l1.43-.47a36.63,36.63,0,0,0-8.28-5.48A38.16,38.16,0,0,0,84.59,81.1Zm63.32-1.71a47.24,47.24,0,0,1-1.38,12.82,104.54,104.54,0,0,0,8.06-6.76q-3.37-3.26-6.68-6.06ZM59.49,42.81A59.37,59.37,0,0,0,47,53.38c-8,9-12.08,21.07-11.81,34.19,1.1-.85,2.22-1.7,3.35-2.54a119.63,119.63,0,0,1,6.72-17.65A101.76,101.76,0,0,1,59.49,42.81ZM92.64,74A46.49,46.49,0,0,1,112,85.8a13.12,13.12,0,0,0,5.18-6.13c1.43-4,.13-9.14-3.86-15.35a9.36,9.36,0,0,0-1.49-1.83C109,64,105.6,65.78,101.7,68A87.07,87.07,0,0,0,92.64,74Zm60-2.09q4,3.36,8.12,7.31a83.84,83.84,0,0,0,5.85-7.3,31.08,31.08,0,0,0,1.08-4.79,8.57,8.57,0,0,0-3-.58C161.45,66.47,157.48,68.26,152.6,71.91ZM76.22,56.39A57.72,57.72,0,0,0,53.79,74.86c3.33-2,6.76-3.92,10.25-5.75,2.51-3,5-5.76,7.57-8.28C73.11,59.31,74.66,57.83,76.22,56.39ZM138,50.51a10.33,10.33,0,0,1,7.61,7.21,12.34,12.34,0,0,1,.45,3.6c3.42-9.5,5-17.35,4.37-22.58a66.3,66.3,0,0,0-14.55-5.91c-.78.16-1.58.34-2.41.55a52.87,52.87,0,0,1,4.39,16.92Zm21-5.57a73.5,73.5,0,0,1-3.29,14.87,21.47,21.47,0,0,1,9.09-2,19.26,19.26,0,0,1,2.43.21A26.54,26.54,0,0,0,159,44.94Zm-1-11.79.89.6c9.89,6.76,14.6,14.27,16.55,21.19.53-1.52,1-3,1.33-4.49,2.74-11.2-2.32-24.27-12.58-32.53-13.13-10.56-32-12-52.7-4.27a31.13,31.13,0,0,1,13.7,7.82l.27.27a100,100,0,0,1,10.82,2.15,31.73,31.73,0,0,1,10.53-.22,13.87,13.87,0,0,1,10.85,8.61C157.83,32.56,158,32.86,158.05,33.15ZM77.7,35.5A118.8,118.8,0,0,0,63.36,53.24a59.86,59.86,0,0,1,29.15-9.78l.79-.54A58.29,58.29,0,0,0,77.7,35.5Zm31.85,9.37a48,48,0,0,1,7,2.26,37,37,0,0,1,6.3,3.31c1.36-.14,2.71-.25,4.06-.34a94.55,94.55,0,0,0-8.36-9.1c-.53-.51-1.06-1-1.61-1.52-2.75,1.28-5.58,2.73-8.45,4.34ZM90.37,31.14a73.84,73.84,0,0,1,10.92,6.72c2.83-1.68,5.66-3.22,8.45-4.62-1.58-1.28-3.21-2.53-4.87-3.73A109.05,109.05,0,0,0,90.37,31.14ZM66.78,15.27c-9.92,0-20.24,3.16-30.57,11A39.59,39.59,0,0,0,28,35a87.9,87.9,0,0,1,24.4-9,54.74,54.74,0,0,1,22.75-.16c1.5-1.35,3-2.63,4.55-3.82l.63-.48c1.34-1.07,2.69-2.11,4-3.1A52.75,52.75,0,0,0,66.78,15.27Z"></path></svg>